<svg width="24" height="18" viewBox="0 0 24 18" fill="none" xmlns="http://www.w3.org/2000/svg">
  <g clip-path="url(#clip0)">
    <path fill="#ffffff" d="M-2.375 1.383V17.523H-6.371V11.528H-12.904V17.599H-16.9V1.46H-12.904V7.916H-6.371V1.46H-2.375V1.383ZM43.736 17.522H39.74V9.452L36.128 14.986H33.898L30.287 9.376V17.522H26.291V1.383H29.288L34.975 9.991L40.662 1.383H43.659V17.523L43.736 17.522ZM11.996 0.692C5.617 0.692 0.468 5.61 0.468 11.682C0.468 13.833 1.083 15.832 2.236 17.522H7.769C6.079 16.216 5.003 14.218 5.003 11.912C5.003 8.069 8.153 4.919 11.996 4.919C15.839 4.919 18.99 8.069 18.99 11.912C18.99 14.218 17.914 16.216 16.223 17.522H21.756C22.832 15.832 23.524 13.833 23.524 11.682C23.523 5.61 18.373 0.691 11.996 0.691V0.692Z"/>
    <path fill="#ffffff" d="M8.23 13.526C8.768 15.14 10.229 16.293 11.996 16.293C13.764 16.293 15.224 15.14 15.762 13.526H8.23V13.526ZM51.037 4.919V7.839H58.184V11.22H51.037V13.987H59.183V17.445H46.963V1.306H59.183V4.765H51.037V4.919ZM178.457 13.065C178.457 15.755 176.305 17.522 172.693 17.522H164.547V1.383H172.232C175.767 1.383 177.766 3.074 177.766 5.687C177.766 7.147 176.92 8.761 175.536 9.222C177.458 9.683 178.457 11.374 178.457 13.065V13.065ZM168.543 4.688V8.069H171.541C173.078 8.069 173.923 7.301 173.923 6.302C173.923 5.302 173.078 4.765 171.541 4.765H168.543V4.688V4.688ZM174.538 12.527C174.538 11.527 173.692 10.99 172.232 10.99H168.543V14.218H172.155C173.769 14.218 174.538 13.526 174.538 12.527V12.527ZM190.83 14.756H183.99L182.915 17.522H178.611L185.451 1.383H189.293L196.133 17.523H191.829L190.83 14.756V14.756ZM189.524 11.451L187.372 5.994L185.22 11.451H189.524V11.451ZM212.349 1.383V17.523H209.275L201.513 8.684V17.522H197.517V1.383H200.591L208.353 10.452V1.383H212.349ZM222.109 11.528L219.727 14.294V17.6H215.73V1.46H219.727V8.838L226.182 1.46H230.947L224.799 8.53L231.485 17.6H226.49L222.109 11.528ZM96.917 17.522L93.843 12.834H90.846V17.522H86.773V1.383H93.843C97.84 1.383 100.529 3.535 100.529 7.07C100.529 9.145 99.53 10.913 97.839 11.912L101.605 17.522H96.917ZM90.769 9.3H93.767C95.304 9.3 96.533 8.455 96.533 7.148C96.533 5.842 95.303 4.996 93.767 4.996H90.769V9.3ZM107.6 4.919V7.839H114.747V11.22H107.6V13.987H115.746V17.445H103.526V1.306H115.746V4.765H107.6V4.919ZM133.653 9.453C133.653 14.218 130.041 17.599 124.968 17.599H118.513V1.46H124.968C129.964 1.383 133.653 4.688 133.653 9.453ZM129.579 9.453C129.579 6.993 127.581 5.073 124.969 5.073H122.509V13.987H124.969C127.581 13.91 129.579 11.989 129.579 9.453ZM139.801 1.383V17.523H135.804V1.382L139.801 1.383ZM155.171 4.995H150.56V17.522H146.564V4.995H141.953V1.383H155.171V4.995ZM80.241 11.758C79.626 13.218 78.319 14.141 76.551 14.141C73.939 14.141 72.094 12.219 72.094 9.53C72.094 6.84 73.939 4.919 76.552 4.919C78.319 4.919 79.626 5.764 80.241 7.301H84.467C83.622 3.612 80.625 1.153 76.552 1.153C71.71 1.153 68.022 4.688 68.022 9.53C68.022 14.371 71.71 17.906 76.552 17.906C80.625 17.906 83.622 15.447 84.467 11.758H80.241V11.758Z"/>
  </g>
  <defs>
    <clipPath id="clip0">
      <rect width="24" height="18"/>
    </clipPath>
  </defs>
</svg>
